<mxfile host="Electron" agent="Mozilla/5.0 (Windows NT 10.0; Win64; x64) AppleWebKit/537.36 (KHTML, like Gecko) draw.io/26.0.9 Chrome/128.0.6613.186 Electron/32.2.5 Safari/537.36" version="26.0.9">
  <diagram name="Page-1" id="e7e014a7-5840-1c2e-5031-d8a46d1fe8dd">
    <mxGraphModel dx="1500" dy="1713" grid="1" gridSize="10" guides="1" tooltips="1" connect="1" arrows="1" fold="1" page="1" pageScale="1" pageWidth="1169" pageHeight="826" background="none" math="0" shadow="0">
      <root>
        <mxCell id="0" />
        <mxCell id="1" parent="0" />
        <mxCell id="2" value="Tab 1" style="swimlane;whiteSpace=wrap" parent="1" vertex="1">
          <mxGeometry x="164.5" y="128" width="280" height="570" as="geometry" />
        </mxCell>
        <mxCell id="5" value="" style="ellipse;shape=startState;fillColor=#000000;strokeColor=#ff0000;" parent="2" vertex="1">
          <mxGeometry x="100" y="40" width="30" height="30" as="geometry" />
        </mxCell>
        <mxCell id="6" value="" style="edgeStyle=elbowEdgeStyle;elbow=horizontal;verticalAlign=bottom;endArrow=open;endSize=8;strokeColor=#FF0000;endFill=1;rounded=0" parent="2" source="5" target="7" edge="1">
          <mxGeometry x="100" y="40" as="geometry">
            <mxPoint x="115" y="110" as="targetPoint" />
          </mxGeometry>
        </mxCell>
        <mxCell id="7" value="Open Calender Page" style="" parent="2" vertex="1">
          <mxGeometry x="75.5" y="110" width="110" height="50" as="geometry" />
        </mxCell>
        <mxCell id="9" value="" style="endArrow=open;strokeColor=#FF0000;endFill=1;rounded=0;entryX=0.5;entryY=0;entryDx=0;entryDy=0;" parent="2" source="7" target="10" edge="1">
          <mxGeometry relative="1" as="geometry">
            <mxPoint x="130.5" y="220" as="targetPoint" />
          </mxGeometry>
        </mxCell>
        <mxCell id="10" value="Choose Option" style="" parent="2" vertex="1">
          <mxGeometry x="75.5" y="222" width="110" height="50" as="geometry" />
        </mxCell>
        <mxCell id="12" value="" style="edgeStyle=elbowEdgeStyle;elbow=horizontal;strokeColor=#FF0000;endArrow=open;endFill=1;rounded=0" parent="2" source="10" target="7" edge="1">
          <mxGeometry width="100" height="100" relative="1" as="geometry">
            <mxPoint x="160" y="290" as="sourcePoint" />
            <mxPoint x="260" y="190" as="targetPoint" />
            <Array as="points">
              <mxPoint x="56" y="242" />
            </Array>
          </mxGeometry>
        </mxCell>
        <mxCell id="VgjV9yt1iy1uQdXk4QUd-41" value="Load Calender" style="text;html=1;align=center;verticalAlign=middle;whiteSpace=wrap;rounded=0;" parent="2" vertex="1">
          <mxGeometry x="125.5" y="40" width="60" height="30" as="geometry" />
        </mxCell>
        <mxCell id="VgjV9yt1iy1uQdXk4QUd-42" value="Start" style="text;html=1;align=center;verticalAlign=middle;whiteSpace=wrap;rounded=0;" parent="2" vertex="1">
          <mxGeometry x="40" y="40" width="60" height="30" as="geometry" />
        </mxCell>
        <mxCell id="3" value="Tab 2" style="swimlane;whiteSpace=wrap" parent="1" vertex="1">
          <mxGeometry x="444.5" y="128" width="365.5" height="570" as="geometry" />
        </mxCell>
        <mxCell id="6F1Xavcu6w1pNTxPSGP4-24" style="edgeStyle=orthogonalEdgeStyle;shape=connector;rounded=0;orthogonalLoop=1;jettySize=auto;html=1;entryX=0.5;entryY=0;entryDx=0;entryDy=0;strokeColor=#006EAF;align=center;verticalAlign=middle;fontFamily=Helvetica;fontSize=11;fontColor=default;labelBackgroundColor=default;endArrow=open;endFill=1;fillColor=#1ba1e2;" parent="3" source="18" target="VgjV9yt1iy1uQdXk4QUd-48" edge="1">
          <mxGeometry relative="1" as="geometry" />
        </mxCell>
        <mxCell id="18" value="Daily View&#xa;&#xa;&#xa;" style="" parent="3" vertex="1">
          <mxGeometry x="20" y="100" width="110" height="62" as="geometry" />
        </mxCell>
        <mxCell id="VgjV9yt1iy1uQdXk4QUd-85" value="" style="edgeStyle=orthogonalEdgeStyle;rounded=0;orthogonalLoop=1;jettySize=auto;html=1;endArrow=open;endFill=0;strokeColor=#FF0000;startArrow=open;startFill=0;" parent="3" source="VgjV9yt1iy1uQdXk4QUd-44" target="18" edge="1">
          <mxGeometry relative="1" as="geometry" />
        </mxCell>
        <mxCell id="6F1Xavcu6w1pNTxPSGP4-26" style="edgeStyle=orthogonalEdgeStyle;shape=connector;rounded=0;orthogonalLoop=1;jettySize=auto;html=1;entryX=0.5;entryY=0;entryDx=0;entryDy=0;strokeColor=#2D7600;align=center;verticalAlign=middle;fontFamily=Helvetica;fontSize=11;fontColor=default;labelBackgroundColor=default;endArrow=open;endFill=1;fillColor=#60a917;" parent="3" source="VgjV9yt1iy1uQdXk4QUd-44" target="VgjV9yt1iy1uQdXk4QUd-65" edge="1">
          <mxGeometry relative="1" as="geometry">
            <Array as="points">
              <mxPoint x="106" y="302" />
              <mxPoint x="278" y="302" />
            </Array>
          </mxGeometry>
        </mxCell>
        <mxCell id="VgjV9yt1iy1uQdXk4QUd-44" value="Weekly View&#xa;&#xa;&#xa;" style="" parent="3" vertex="1">
          <mxGeometry x="20" y="210" width="110" height="62" as="geometry" />
        </mxCell>
        <mxCell id="6F1Xavcu6w1pNTxPSGP4-23" style="edgeStyle=orthogonalEdgeStyle;shape=connector;rounded=0;orthogonalLoop=1;jettySize=auto;html=1;strokeColor=#006EAF;align=center;verticalAlign=middle;fontFamily=Helvetica;fontSize=11;fontColor=default;labelBackgroundColor=default;endArrow=open;endFill=1;fillColor=#1ba1e2;exitX=1;exitY=0.25;exitDx=0;exitDy=0;" parent="3" source="VgjV9yt1iy1uQdXk4QUd-46" target="VgjV9yt1iy1uQdXk4QUd-94" edge="1">
          <mxGeometry relative="1" as="geometry" />
        </mxCell>
        <mxCell id="6F1Xavcu6w1pNTxPSGP4-25" style="edgeStyle=orthogonalEdgeStyle;shape=connector;rounded=0;orthogonalLoop=1;jettySize=auto;html=1;entryX=0;entryY=0.5;entryDx=0;entryDy=0;strokeColor=#2D7600;align=center;verticalAlign=middle;fontFamily=Helvetica;fontSize=11;fontColor=default;labelBackgroundColor=default;endArrow=open;endFill=1;fillColor=#60a917;exitX=0.5;exitY=1;exitDx=0;exitDy=0;" parent="3" source="VgjV9yt1iy1uQdXk4QUd-46" target="VgjV9yt1iy1uQdXk4QUd-65" edge="1">
          <mxGeometry relative="1" as="geometry">
            <Array as="points">
              <mxPoint x="75" y="507" />
            </Array>
          </mxGeometry>
        </mxCell>
        <mxCell id="VgjV9yt1iy1uQdXk4QUd-46" value="Monthly View&#xa;&#xa;&#xa;" style="" parent="3" vertex="1">
          <mxGeometry x="20" y="325" width="110" height="65" as="geometry" />
        </mxCell>
        <mxCell id="VgjV9yt1iy1uQdXk4QUd-48" value="Appointment" style="fillColor=#0050ef;fontColor=#ffffff;strokeColor=#001DBC;" parent="3" vertex="1">
          <mxGeometry x="235.5" y="222" width="110" height="50" as="geometry" />
        </mxCell>
        <mxCell id="VgjV9yt1iy1uQdXk4QUd-51" value="" style="endArrow=open;strokeColor=#006EAF;endFill=1;rounded=0;entryX=0;entryY=0.5;entryDx=0;entryDy=0;exitX=1;exitY=0.5;exitDx=0;exitDy=0;fillColor=#1ba1e2;" parent="3" source="VgjV9yt1iy1uQdXk4QUd-94" target="VgjV9yt1iy1uQdXk4QUd-48" edge="1">
          <mxGeometry relative="1" as="geometry">
            <mxPoint x="140" y="360" as="sourcePoint" />
            <mxPoint x="198" y="282" as="targetPoint" />
            <Array as="points" />
          </mxGeometry>
        </mxCell>
        <mxCell id="VgjV9yt1iy1uQdXk4QUd-65" value="Remeber" style="fillColor=#008a00;fontColor=#ffffff;strokeColor=#005700;" parent="3" vertex="1">
          <mxGeometry x="215.5" y="482" width="124.5" height="50" as="geometry" />
        </mxCell>
        <mxCell id="VgjV9yt1iy1uQdXk4QUd-84" value="" style="endArrow=open;html=1;rounded=0;exitX=0.5;exitY=0;exitDx=0;exitDy=0;entryX=0.5;entryY=1;entryDx=0;entryDy=0;endFill=0;strokeColor=#FF0000;startArrow=open;startFill=0;" parent="3" source="VgjV9yt1iy1uQdXk4QUd-46" target="VgjV9yt1iy1uQdXk4QUd-44" edge="1">
          <mxGeometry width="50" height="50" relative="1" as="geometry">
            <mxPoint x="185.5" y="342" as="sourcePoint" />
            <mxPoint x="235.5" y="292" as="targetPoint" />
          </mxGeometry>
        </mxCell>
        <mxCell id="6F1Xavcu6w1pNTxPSGP4-20" value="" style="endArrow=open;strokeColor=#006EAF;endFill=1;rounded=0;entryX=0;entryY=0.5;entryDx=0;entryDy=0;exitX=1;exitY=0.5;exitDx=0;exitDy=0;fillColor=#1ba1e2;" parent="3" source="VgjV9yt1iy1uQdXk4QUd-44" target="VgjV9yt1iy1uQdXk4QUd-94" edge="1">
          <mxGeometry relative="1" as="geometry">
            <mxPoint x="574.5" y="375" as="sourcePoint" />
            <mxPoint x="680.5" y="375" as="targetPoint" />
            <Array as="points" />
          </mxGeometry>
        </mxCell>
        <mxCell id="VgjV9yt1iy1uQdXk4QUd-94" value="Select Day" style="" parent="3" vertex="1">
          <mxGeometry x="145.5" y="232" width="74.5" height="28" as="geometry" />
        </mxCell>
        <mxCell id="6F1Xavcu6w1pNTxPSGP4-29" style="edgeStyle=orthogonalEdgeStyle;shape=connector;rounded=0;orthogonalLoop=1;jettySize=auto;html=1;entryX=0.1;entryY=0.008;entryDx=0;entryDy=0;entryPerimeter=0;strokeColor=#2D7600;align=center;verticalAlign=middle;fontFamily=Helvetica;fontSize=11;fontColor=default;labelBackgroundColor=default;endArrow=open;endFill=1;fillColor=#60a917;" parent="3" source="18" target="VgjV9yt1iy1uQdXk4QUd-65" edge="1">
          <mxGeometry relative="1" as="geometry" />
        </mxCell>
        <mxCell id="VgjV9yt1iy1uQdXk4QUd-66" value="show w.Appointment" style="glass=1;" parent="3" vertex="1">
          <mxGeometry x="17.25" y="252" width="115.5" height="20" as="geometry" />
        </mxCell>
        <mxCell id="VgjV9yt1iy1uQdXk4QUd-76" value="show w .Remember" style="rounded=0;glass=1;" parent="3" vertex="1">
          <mxGeometry x="20" y="231" width="110" height="20" as="geometry" />
        </mxCell>
        <mxCell id="6F1Xavcu6w1pNTxPSGP4-37" style="edgeStyle=elbowEdgeStyle;shape=connector;rounded=0;orthogonalLoop=1;jettySize=auto;elbow=horizontal;html=1;exitX=0.75;exitY=1;exitDx=0;exitDy=0;strokeColor=#FF0000;align=center;verticalAlign=middle;fontFamily=Helvetica;fontSize=11;fontColor=default;labelBackgroundColor=default;endArrow=open;endFill=1;" parent="3" source="VgjV9yt1iy1uQdXk4QUd-76" target="VgjV9yt1iy1uQdXk4QUd-76" edge="1">
          <mxGeometry relative="1" as="geometry" />
        </mxCell>
        <mxCell id="6F1Xavcu6w1pNTxPSGP4-38" value="show d .Remember" style="glass=1;" parent="3" vertex="1">
          <mxGeometry x="20" y="121" width="110" height="20" as="geometry" />
        </mxCell>
        <mxCell id="6F1Xavcu6w1pNTxPSGP4-39" value="show d.Appointment" style="glass=1;" parent="3" vertex="1">
          <mxGeometry x="17.25" y="142" width="115.5" height="20" as="geometry" />
        </mxCell>
        <mxCell id="6F1Xavcu6w1pNTxPSGP4-40" value="show m .Remember" style="glass=1;" parent="3" vertex="1">
          <mxGeometry x="22.75" y="350" width="110" height="20" as="geometry" />
        </mxCell>
        <mxCell id="6F1Xavcu6w1pNTxPSGP4-41" value="show m.Appointment" style="glass=1;" parent="3" vertex="1">
          <mxGeometry x="17.25" y="370" width="115.5" height="20" as="geometry" />
        </mxCell>
        <mxCell id="4" value="Tab 3" style="swimlane;whiteSpace=wrap" parent="1" vertex="1">
          <mxGeometry x="810" y="130" width="450" height="308" as="geometry" />
        </mxCell>
        <mxCell id="6F1Xavcu6w1pNTxPSGP4-45" style="edgeStyle=elbowEdgeStyle;shape=connector;rounded=0;orthogonalLoop=1;jettySize=auto;elbow=horizontal;html=1;entryX=0;entryY=0.5;entryDx=0;entryDy=0;strokeColor=#A50040;align=center;verticalAlign=middle;fontFamily=Helvetica;fontSize=11;fontColor=default;labelBackgroundColor=default;endArrow=open;endFill=1;fillColor=#d80073;" parent="4" source="VgjV9yt1iy1uQdXk4QUd-52" target="6F1Xavcu6w1pNTxPSGP4-43" edge="1">
          <mxGeometry relative="1" as="geometry" />
        </mxCell>
        <mxCell id="VgjV9yt1iy1uQdXk4QUd-52" value="Delete Appointment" style="" parent="4" vertex="1">
          <mxGeometry x="25.5" y="50" width="124.5" height="50" as="geometry" />
        </mxCell>
        <mxCell id="6F1Xavcu6w1pNTxPSGP4-46" style="edgeStyle=elbowEdgeStyle;shape=connector;rounded=0;orthogonalLoop=1;jettySize=auto;elbow=horizontal;html=1;strokeColor=#FF0000;align=center;verticalAlign=middle;fontFamily=Helvetica;fontSize=12;fontColor=#ffffff;labelBackgroundColor=default;endArrow=open;endFill=1;" parent="4" source="VgjV9yt1iy1uQdXk4QUd-53" target="6F1Xavcu6w1pNTxPSGP4-43" edge="1">
          <mxGeometry relative="1" as="geometry" />
        </mxCell>
        <mxCell id="VgjV9yt1iy1uQdXk4QUd-53" value="modify Appointment" style="" parent="4" vertex="1">
          <mxGeometry x="25.5" y="120" width="124.5" height="50" as="geometry" />
        </mxCell>
        <mxCell id="6F1Xavcu6w1pNTxPSGP4-47" style="edgeStyle=elbowEdgeStyle;shape=connector;rounded=0;orthogonalLoop=1;jettySize=auto;elbow=horizontal;html=1;entryX=0;entryY=0.5;entryDx=0;entryDy=0;strokeColor=#FF0000;align=center;verticalAlign=middle;fontFamily=Helvetica;fontSize=12;fontColor=#ffffff;labelBackgroundColor=default;endArrow=open;endFill=1;" parent="4" source="VgjV9yt1iy1uQdXk4QUd-54" target="6F1Xavcu6w1pNTxPSGP4-43" edge="1">
          <mxGeometry relative="1" as="geometry" />
        </mxCell>
        <mxCell id="VgjV9yt1iy1uQdXk4QUd-54" value="Load Appointment" style="" parent="4" vertex="1">
          <mxGeometry x="25.5" y="180" width="124.5" height="50" as="geometry" />
        </mxCell>
        <mxCell id="6F1Xavcu6w1pNTxPSGP4-48" style="edgeStyle=elbowEdgeStyle;shape=connector;rounded=0;orthogonalLoop=1;jettySize=auto;elbow=horizontal;html=1;entryX=0;entryY=0.5;entryDx=0;entryDy=0;strokeColor=#FF0000;align=center;verticalAlign=middle;fontFamily=Helvetica;fontSize=12;fontColor=#ffffff;labelBackgroundColor=default;endArrow=open;endFill=1;" parent="4" source="VgjV9yt1iy1uQdXk4QUd-58" target="6F1Xavcu6w1pNTxPSGP4-43" edge="1">
          <mxGeometry relative="1" as="geometry" />
        </mxCell>
        <mxCell id="VgjV9yt1iy1uQdXk4QUd-58" value="create Appointment" style="" parent="4" vertex="1">
          <mxGeometry x="25.5" y="240" width="124.5" height="50" as="geometry" />
        </mxCell>
        <mxCell id="6F1Xavcu6w1pNTxPSGP4-43" value="commit" style="fillColor=#d80073;fontColor=#ffffff;strokeColor=#A50040;" parent="4" vertex="1">
          <mxGeometry x="180" y="160" width="124.5" height="50" as="geometry" />
        </mxCell>
        <mxCell id="VgjV9yt1iy1uQdXk4QUd-55" value="" style="endArrow=open;strokeColor=#006EAF;endFill=1;rounded=0;entryX=0;entryY=0.5;entryDx=0;entryDy=0;exitX=1;exitY=0.5;exitDx=0;exitDy=0;fillColor=#1ba1e2;" parent="1" source="VgjV9yt1iy1uQdXk4QUd-48" target="VgjV9yt1iy1uQdXk4QUd-52" edge="1">
          <mxGeometry relative="1" as="geometry">
            <mxPoint x="584.5" y="488" as="sourcePoint" />
            <mxPoint x="642.5" y="410" as="targetPoint" />
            <Array as="points">
              <mxPoint x="790" y="330" />
            </Array>
          </mxGeometry>
        </mxCell>
        <mxCell id="VgjV9yt1iy1uQdXk4QUd-56" value="" style="endArrow=open;strokeColor=#006EAF;endFill=1;rounded=0;entryX=0;entryY=0.5;entryDx=0;entryDy=0;exitX=1;exitY=0.5;exitDx=0;exitDy=0;fillColor=#1ba1e2;" parent="1" source="VgjV9yt1iy1uQdXk4QUd-48" target="VgjV9yt1iy1uQdXk4QUd-53" edge="1">
          <mxGeometry relative="1" as="geometry">
            <mxPoint x="725" y="385" as="sourcePoint" />
            <mxPoint x="760" y="245" as="targetPoint" />
            <Array as="points">
              <mxPoint x="790" y="350" />
            </Array>
          </mxGeometry>
        </mxCell>
        <mxCell id="VgjV9yt1iy1uQdXk4QUd-57" value="" style="endArrow=open;strokeColor=#006EAF;endFill=1;rounded=0;entryX=0;entryY=0.5;entryDx=0;entryDy=0;exitX=1;exitY=0.5;exitDx=0;exitDy=0;fillColor=#1ba1e2;" parent="1" source="VgjV9yt1iy1uQdXk4QUd-48" target="VgjV9yt1iy1uQdXk4QUd-54" edge="1">
          <mxGeometry relative="1" as="geometry">
            <mxPoint x="725" y="385" as="sourcePoint" />
            <mxPoint x="760" y="305" as="targetPoint" />
            <Array as="points" />
          </mxGeometry>
        </mxCell>
        <mxCell id="VgjV9yt1iy1uQdXk4QUd-59" value="" style="endArrow=open;strokeColor=#006EAF;endFill=1;rounded=0;entryX=0;entryY=0.5;entryDx=0;entryDy=0;exitX=1;exitY=0.5;exitDx=0;exitDy=0;fillColor=#1ba1e2;" parent="1" source="VgjV9yt1iy1uQdXk4QUd-48" target="VgjV9yt1iy1uQdXk4QUd-58" edge="1">
          <mxGeometry relative="1" as="geometry">
            <mxPoint x="584.5" y="488" as="sourcePoint" />
            <mxPoint x="642.5" y="410" as="targetPoint" />
            <Array as="points" />
          </mxGeometry>
        </mxCell>
        <mxCell id="VgjV9yt1iy1uQdXk4QUd-72" value="Tab 4" style="swimlane;whiteSpace=wrap" parent="1" vertex="1">
          <mxGeometry x="810" y="438" width="450" height="260" as="geometry" />
        </mxCell>
        <mxCell id="6F1Xavcu6w1pNTxPSGP4-49" style="edgeStyle=elbowEdgeStyle;shape=connector;rounded=0;orthogonalLoop=1;jettySize=auto;elbow=horizontal;html=1;entryX=0;entryY=0.5;entryDx=0;entryDy=0;strokeColor=#FF0000;align=center;verticalAlign=middle;fontFamily=Helvetica;fontSize=12;fontColor=#ffffff;labelBackgroundColor=default;endArrow=open;endFill=1;" parent="VgjV9yt1iy1uQdXk4QUd-72" source="VgjV9yt1iy1uQdXk4QUd-75" target="6F1Xavcu6w1pNTxPSGP4-44" edge="1">
          <mxGeometry relative="1" as="geometry" />
        </mxCell>
        <mxCell id="VgjV9yt1iy1uQdXk4QUd-75" value="create Remeber" style="" parent="VgjV9yt1iy1uQdXk4QUd-72" vertex="1">
          <mxGeometry x="25.5" y="50" width="124.5" height="50" as="geometry" />
        </mxCell>
        <mxCell id="6F1Xavcu6w1pNTxPSGP4-50" style="edgeStyle=elbowEdgeStyle;shape=connector;rounded=0;orthogonalLoop=1;jettySize=auto;elbow=horizontal;html=1;strokeColor=#FF0000;align=center;verticalAlign=middle;fontFamily=Helvetica;fontSize=12;fontColor=#ffffff;labelBackgroundColor=default;endArrow=open;endFill=1;" parent="VgjV9yt1iy1uQdXk4QUd-72" source="VgjV9yt1iy1uQdXk4QUd-77" edge="1">
          <mxGeometry relative="1" as="geometry">
            <mxPoint x="190" y="145" as="targetPoint" />
          </mxGeometry>
        </mxCell>
        <mxCell id="VgjV9yt1iy1uQdXk4QUd-77" value="Delete Remeber" style="" parent="VgjV9yt1iy1uQdXk4QUd-72" vertex="1">
          <mxGeometry x="25.5" y="120" width="124.5" height="50" as="geometry" />
        </mxCell>
        <mxCell id="6F1Xavcu6w1pNTxPSGP4-51" style="edgeStyle=elbowEdgeStyle;shape=connector;rounded=0;orthogonalLoop=1;jettySize=auto;elbow=horizontal;html=1;entryX=0;entryY=0.5;entryDx=0;entryDy=0;strokeColor=#FF0000;align=center;verticalAlign=middle;fontFamily=Helvetica;fontSize=12;fontColor=#ffffff;labelBackgroundColor=default;endArrow=open;endFill=1;" parent="VgjV9yt1iy1uQdXk4QUd-72" source="VgjV9yt1iy1uQdXk4QUd-89" target="6F1Xavcu6w1pNTxPSGP4-44" edge="1">
          <mxGeometry relative="1" as="geometry" />
        </mxCell>
        <mxCell id="VgjV9yt1iy1uQdXk4QUd-89" value="modify Remeber" style="" parent="VgjV9yt1iy1uQdXk4QUd-72" vertex="1">
          <mxGeometry x="25.5" y="190" width="124.5" height="50" as="geometry" />
        </mxCell>
        <mxCell id="6F1Xavcu6w1pNTxPSGP4-44" value="commit" style="fillColor=#d80073;fontColor=#ffffff;strokeColor=#A50040;" parent="VgjV9yt1iy1uQdXk4QUd-72" vertex="1">
          <mxGeometry x="190" y="120" width="124.5" height="50" as="geometry" />
        </mxCell>
        <mxCell id="VgjV9yt1iy1uQdXk4QUd-87" value="" style="endArrow=none;html=1;rounded=0;entryX=1;entryY=0.5;entryDx=0;entryDy=0;exitX=0;exitY=0.5;exitDx=0;exitDy=0;strokeColor=#2D7600;endFill=0;startFill=0;startArrow=open;fillColor=#60a917;" parent="1" source="VgjV9yt1iy1uQdXk4QUd-75" target="VgjV9yt1iy1uQdXk4QUd-65" edge="1">
          <mxGeometry width="50" height="50" relative="1" as="geometry">
            <mxPoint x="630" y="570" as="sourcePoint" />
            <mxPoint x="680" y="520" as="targetPoint" />
          </mxGeometry>
        </mxCell>
        <mxCell id="VgjV9yt1iy1uQdXk4QUd-88" value="" style="endArrow=none;html=1;rounded=0;entryX=1;entryY=0.5;entryDx=0;entryDy=0;exitX=0;exitY=0.5;exitDx=0;exitDy=0;strokeColor=#2D7600;endFill=0;startFill=0;startArrow=open;fillColor=#60a917;" parent="1" source="VgjV9yt1iy1uQdXk4QUd-77" target="VgjV9yt1iy1uQdXk4QUd-65" edge="1">
          <mxGeometry width="50" height="50" relative="1" as="geometry">
            <mxPoint x="760" y="615" as="sourcePoint" />
            <mxPoint x="732" y="655" as="targetPoint" />
          </mxGeometry>
        </mxCell>
        <mxCell id="VgjV9yt1iy1uQdXk4QUd-90" value="" style="endArrow=none;html=1;rounded=0;entryX=1;entryY=0.5;entryDx=0;entryDy=0;exitX=0;exitY=0.5;exitDx=0;exitDy=0;strokeColor=#2D7600;endFill=0;startFill=0;startArrow=open;fillColor=#60a917;" parent="1" source="VgjV9yt1iy1uQdXk4QUd-89" target="VgjV9yt1iy1uQdXk4QUd-65" edge="1">
          <mxGeometry width="50" height="50" relative="1" as="geometry">
            <mxPoint x="846" y="685" as="sourcePoint" />
            <mxPoint x="795" y="645" as="targetPoint" />
          </mxGeometry>
        </mxCell>
        <mxCell id="6F1Xavcu6w1pNTxPSGP4-32" style="edgeStyle=elbowEdgeStyle;shape=connector;rounded=0;orthogonalLoop=1;jettySize=auto;elbow=horizontal;html=1;entryX=0;entryY=0.5;entryDx=0;entryDy=0;strokeColor=#FF0000;align=center;verticalAlign=middle;fontFamily=Helvetica;fontSize=11;fontColor=default;labelBackgroundColor=default;endArrow=open;endFill=1;" parent="1" source="10" target="18" edge="1">
          <mxGeometry relative="1" as="geometry" />
        </mxCell>
        <mxCell id="6F1Xavcu6w1pNTxPSGP4-33" style="edgeStyle=elbowEdgeStyle;shape=connector;rounded=0;orthogonalLoop=1;jettySize=auto;elbow=horizontal;html=1;entryX=0;entryY=0.5;entryDx=0;entryDy=0;strokeColor=#FF0000;align=center;verticalAlign=middle;fontFamily=Helvetica;fontSize=11;fontColor=default;labelBackgroundColor=default;endArrow=open;endFill=1;" parent="1" source="10" target="VgjV9yt1iy1uQdXk4QUd-44" edge="1">
          <mxGeometry relative="1" as="geometry" />
        </mxCell>
        <mxCell id="6F1Xavcu6w1pNTxPSGP4-34" style="edgeStyle=elbowEdgeStyle;shape=connector;rounded=0;orthogonalLoop=1;jettySize=auto;elbow=horizontal;html=1;entryX=0;entryY=0.5;entryDx=0;entryDy=0;strokeColor=#FF0000;align=center;verticalAlign=middle;fontFamily=Helvetica;fontSize=11;fontColor=default;labelBackgroundColor=default;endArrow=open;endFill=1;" parent="1" source="10" target="VgjV9yt1iy1uQdXk4QUd-46" edge="1">
          <mxGeometry relative="1" as="geometry" />
        </mxCell>
        <mxCell id="6F1Xavcu6w1pNTxPSGP4-52" value="Background Activity" style="swimlane;whiteSpace=wrap;startSize=23;" parent="1" vertex="1">
          <mxGeometry x="450" y="698" width="810" height="182" as="geometry" />
        </mxCell>
        <mxCell id="LbAcKan-rqgFiXSeJdfO-18" value="" style="endArrow=none;html=1;rounded=0;entryX=0.5;entryY=1;entryDx=0;entryDy=0;exitX=0.25;exitY=1;exitDx=0;exitDy=0;strokeColor=#FF33FF;" edge="1" parent="1" source="VgjV9yt1iy1uQdXk4QUd-94" target="6F1Xavcu6w1pNTxPSGP4-44">
          <mxGeometry width="50" height="50" relative="1" as="geometry">
            <mxPoint x="1062" y="790" as="sourcePoint" />
            <mxPoint x="960" y="560" as="targetPoint" />
            <Array as="points">
              <mxPoint x="609" y="810" />
              <mxPoint x="1062" y="810" />
            </Array>
          </mxGeometry>
        </mxCell>
        <mxCell id="LbAcKan-rqgFiXSeJdfO-19" value="" style="endArrow=none;html=1;rounded=0;entryX=1;entryY=0.5;entryDx=0;entryDy=0;exitX=0.75;exitY=1;exitDx=0;exitDy=0;strokeColor=#FF33FF;" edge="1" parent="1" source="VgjV9yt1iy1uQdXk4QUd-94" target="6F1Xavcu6w1pNTxPSGP4-43">
          <mxGeometry width="50" height="50" relative="1" as="geometry">
            <mxPoint x="1150" y="790" as="sourcePoint" />
            <mxPoint x="960" y="560" as="targetPoint" />
            <Array as="points">
              <mxPoint x="646" y="820" />
              <mxPoint x="1150" y="820" />
              <mxPoint x="1150" y="315" />
            </Array>
          </mxGeometry>
        </mxCell>
        <mxCell id="LbAcKan-rqgFiXSeJdfO-20" value="" style="endArrow=none;html=1;rounded=0;entryX=1;entryY=0.5;entryDx=0;entryDy=0;exitX=0.75;exitY=0;exitDx=0;exitDy=0;strokeColor=#F8FF2F;" edge="1" parent="1" source="18" target="6F1Xavcu6w1pNTxPSGP4-43">
          <mxGeometry width="50" height="50" relative="1" as="geometry">
            <mxPoint x="910" y="540" as="sourcePoint" />
            <mxPoint x="960" y="490" as="targetPoint" />
            <Array as="points">
              <mxPoint x="547" y="30" />
              <mxPoint x="1150" y="30" />
              <mxPoint x="1150" y="200" />
              <mxPoint x="1150" y="300" />
            </Array>
          </mxGeometry>
        </mxCell>
        <mxCell id="LbAcKan-rqgFiXSeJdfO-21" value="" style="endArrow=none;html=1;rounded=0;entryX=1;entryY=0.5;entryDx=0;entryDy=0;exitX=1;exitY=0;exitDx=0;exitDy=0;strokeColor=#F8FF2F;" edge="1" parent="1" source="18" target="6F1Xavcu6w1pNTxPSGP4-44">
          <mxGeometry width="50" height="50" relative="1" as="geometry">
            <mxPoint x="910" y="540" as="sourcePoint" />
            <mxPoint x="960" y="490" as="targetPoint" />
            <Array as="points">
              <mxPoint x="575" y="40" />
              <mxPoint x="1140" y="40" />
              <mxPoint x="1140" y="580" />
            </Array>
          </mxGeometry>
        </mxCell>
        <mxCell id="LbAcKan-rqgFiXSeJdfO-22" value="Background Activity" style="swimlane;whiteSpace=wrap;startSize=23;" vertex="1" parent="1">
          <mxGeometry x="450" y="-52" width="810" height="182" as="geometry" />
        </mxCell>
      </root>
    </mxGraphModel>
  </diagram>
</mxfile>
